<svg xmlns="http://www.w3.org/2000/svg" viewBox="0 0 200 200">
  <!-- Định nghĩa gradient và filter -->
  <defs>
    <!-- Gradient cho nền -->
    <linearGradient id="circleGradient" x1="0%" y1="0%" x2="100%" y2="100%">
      <stop offset="0%" style="stop-color:#FF6B6B"/>
      <stop offset="100%" style="stop-color:#FF4444"/>
    </linearGradient>
    
    <!-- Gradient cho chữ T -->
    <linearGradient id="letterGradient" x1="0%" y1="0%" x2="100%" y2="100%">
      <stop offset="0%" style="stop-color:#FFFFFF"/>
      <stop offset="100%" style="stop-color:#F0F0F0"/>
    </linearGradient>
    
    <!-- Filter cho đổ bóng -->
    <filter id="shadow" x="-20%" y="-20%" width="140%" height="140%">
      <feGaussianBlur in="SourceAlpha" stdDeviation="3"/>
      <feOffset dx="2" dy="2" result="offsetblur"/>
      <feComponentTransfer>
        <feFuncA type="linear" slope="0.3"/>
      </feComponentTransfer>
      <feMerge>
        <feMergeNode/>
        <feMergeNode in="SourceGraphic"/>
      </feMerge>
    </filter>
  </defs>

  <!-- Hình tròn nền -->
  <circle cx="100" cy="100" r="95" fill="url(#circleGradient)"/>
  
  <!-- Chữ T cách điệu -->
  <path d="
    M50 45 
    C50 45, 140 35, 150 45
    S155 55, 155 60
    Q156 65, 153 68
    C150 71, 120 65, 115 68
    Q110 71, 112 75
    L118 140
    Q119 145, 115 148
    C110 151, 100 155, 95 155
    C90 155, 80 151, 75 148
    Q71 145, 72 140
    L78 75
    Q80 71, 75 68
    C70 65, 40 71, 37 68
    Q34 65, 35 60
    C35 55, 40 45, 50 45
    Z" 
    fill="url(#letterGradient)"
    filter="url(#shadow)"
    transform="rotate(-5, 100, 100)"/>
    
  <!-- Thêm điểm nhấn ánh sáng -->
  <path d="
    M60 48
    Q100 42, 140 48
    Q100 44, 60 48
    Z" 
    fill="white" 
    opacity="0.3"
    transform="rotate(-5, 100, 100)"/>
</svg>
